<svg xmlns="http://www.w3.org/2000/svg" xmlns:xlink="http://www.w3.org/1999/xlink" version="1.1" x="0px" y="0px" viewBox="0 0 793.7 623.6" style="enable-background:new 0 0 793.7 623.6;" xml:space="preserve"><path d="M573.1,221.1c-5.3-5.6-20.9-12.8-29.6-13.6c-14.9-1.4-29,2.1-42.5,7.9c-15.7,6.7-29.8,15.8-43.3,26.4  c-8.3,6.6-16.4,13.5-24.2,20.9c-6.8,6.5-12.8,12.7-19.4,19.5c-0.8,0.8-1.8,1.8-2.6,2.6c-0.9-0.6-0.6-1.4-0.6-2.1  c0-0.6,0.1-1.2,0.2-1.9c0.4-3.9,1.1-7.9,1.2-11.7c0.6-16.4,1.1-31.9-8.8-44.9c-8.1-10.6-18.1-18.9-29.3-25.8  c-14.4-9-35.6-15-51.8-20c-24.3-7.2-44-14.9-69.9-28.5c-13.7-7.2-39.4-20-46-23.5c1.5,6.6,3.8,12.8,6.1,19c8,20.7,20,38.8,35.1,55  c10.9,11.7,22.5,22.5,34.5,33.2c9.6,8.6,19.1,17.3,27.8,26.8c10.9,11.7,20.5,24.4,28,38.6c4.5,8.5,7.9,17.4,9.5,26.8  c1.8,10.4,1.6,20.9-1.9,31.1c-1.6,4.9-4.2,9.5-7.3,13.7c-0.5,0.6-0.9,1.2-1.5,1.6c-0.1,0.1-0.5,0.1-0.7,0.2  c-1.2-0.9-0.8-2.2-0.8-3.4c-0.2-4.3-0.8-8.6-1.9-12.8c-1.8-7-4.7-13.5-8.3-19.7c-5.5-9.6-12.1-18.4-19.2-26.8  c-12.8-15-26.4-29.1-40.6-42.7c-10.3-10-20.9-19.6-31.3-29.5c-19-18.2-35.1-38.5-46.7-62.3c-7.9-16.1-14-32.7-17.8-50.1  c-2.1-9.6-3.6-19.4-4.3-29.3c-0.6-6.7-0.5-13.4-0.5-20c0-1.1-0.2-2.2,0.7-3.4c1.3-0.4,2.5,0.6,3.6,1.2c3.9,2,7.6,4.1,11.5,6.1  c10.4,5.3,20.9,10.7,31.6,15.7c26.6,12.8,53.5,24.9,80.9,36.3c18.9,7.9,38.1,15.1,57.5,21.7c10.4,3.5,20.9,6.8,31.1,10.9  c12.9,5.3,25.1,11.6,36.1,20.2c7.4,5.8,13.7,12.4,18.4,20.5c2,3.5,3.8,7.3,4.6,11.3c0.2,0.9,0.7,1.8,1.1,2.9c2-0.9,3.4-2.3,4.9-3.5  c7.5-6.5,15.4-12.4,23.7-17.7c10.6-6.7,21.7-12.3,33.7-16.3c13.3-4.3,26.9-5.8,40.6-4.6c14.2,1.3,27.5,6,39.8,13.3  c14.6,8.7,26.9,19.8,37.2,33.1c2.1,2.7,4.1,5.6,6.1,8.5c0.5,0.7,0.7,1.4,1.3,2.5c-1.2,0-2.1,0.2-2.8,0.1c-5.4-1.1-10.6,0.1-15.6,1.9  c-8.1,2.8-15,7.6-21.1,13.4c-8.5,8.1-15.5,17.4-21.6,27.2c-7.9,12.8-14.4,26.2-20.2,40c-3.2,7.6-6,15.4-8.9,23.2  c-6.3,17.1-15.5,32.5-27.1,46.5c-12.8,15.3-27.8,28.2-44.2,39.3c-10.2,6.9-20.8,13.4-31.9,18.9c-10.3,5-21,9.3-31.9,13  c-27.1,9.6-54.8,17.5-82.7,24.4c-22.3,5.6-43.8,13.3-64.3,23.5c-19.1,9.5-37.1,20.9-53.2,35c-3.2,2.8-6.1,5.9-9.2,8.7  c-0.7,0.7-1.4,1.3-2.2,1.9c-0.8-0.9-0.6-1.8-0.5-2.6c0.7-4.9,2.1-9.6,4.1-14.2c4.2-9.6,9.9-18.3,16.7-26.2c9.6-11,20.9-20.3,33-28.5  c13.5-9.3,27.9-16.8,42.8-23.6c21.7-9.9,44.2-17.3,67-23.8c16.5-4.7,32.7-10.2,48.6-17c18.7-8,36.5-17.6,53-29.6  c14.4-9.3,34-29.8,42-45.5c6.2-10,11.1-20.7,15.8-31.5c4.7-10.7,9.3-21.4,14.7-31.6c7.7-14.7,16.4-28.8,27.1-41.5  C560.3,231.4,567.1,223.4,573.1,221.1z"></path></svg>